<?xml version="1.0" encoding="UTF-8" standalone="no"?> <svg width="64" height="64" viewBox="0 0 64 64" fill="" xmlns="http://www.w3.org/2000/svg">
<path d="M53.7999 32.34C53.7999 31.9422 53.6419 31.5607 53.3606 31.2794C53.0793 30.9981 52.6978 30.84 52.2999 30.84C51.9021 30.84 51.5206 30.9981 51.2393 31.2794C50.958 31.5607 50.7999 31.9422 50.7999 32.34C50.7928 37.0634 49.0098 41.6113 45.805 45.081C42.6002 48.5508 38.2079 50.6886 33.5 51.07V48.07C37.4115 47.6925 41.0424 45.8726 43.6858 42.9649C46.3292 40.0572 47.7958 36.2697 47.7999 32.34V18.34C47.7999 16.2652 47.3913 14.2106 46.5972 12.2936C45.8032 10.3767 44.6394 8.63492 43.1722 7.16775C41.7051 5.70059 39.9633 4.53677 38.0463 3.74274C36.1294 2.94872 34.0748 2.54004 32 2.54004C29.9251 2.54004 27.8705 2.94872 25.9536 3.74274C24.0366 4.53677 22.2948 5.70059 20.8277 7.16775C19.3605 8.63492 18.1967 10.3767 17.4027 12.2936C16.6086 14.2106 16.2 16.2652 16.2 18.34V32.34C16.2041 36.2697 17.6707 40.0572 20.3141 42.9649C22.9575 45.8726 26.5884 47.6925 30.5 48.07V51.07C25.792 50.6886 21.3997 48.5508 18.1949 45.081C14.9901 41.6113 13.2071 37.0634 13.2 32.34C13.2 31.9422 13.0419 31.5607 12.7606 31.2794C12.4793 30.9981 12.0978 30.84 11.7 30.84C11.3021 30.84 10.9206 30.9981 10.6393 31.2794C10.358 31.5607 10.2 31.9422 10.2 32.34C10.2066 37.8603 12.3044 43.1731 16.071 47.2087C19.8376 51.2444 24.9932 53.7031 30.5 54.09V60C30.5 60.3979 30.658 60.7794 30.9393 61.0607C31.2206 61.342 31.6021 61.5 32 61.5C32.3978 61.5 32.7793 61.342 33.0606 61.0607C33.3419 60.7794 33.5 60.3979 33.5 60V54.09C39.0067 53.7031 44.1623 51.2444 47.9289 47.2087C51.6955 43.1731 53.7933 37.8603 53.7999 32.34V32.34ZM19.2 32.34V18.34C19.2 14.9453 20.5485 11.6895 22.949 9.28907C25.3495 6.88861 28.6052 5.54004 32 5.54004C35.3947 5.54004 38.6505 6.88861 41.0509 9.28907C43.4514 11.6895 44.7999 14.9453 44.7999 18.34V32.34C44.7999 35.7348 43.4514 38.9905 41.0509 41.391C38.6505 43.7915 35.3947 45.14 32 45.14C28.6052 45.14 25.3495 43.7915 22.949 41.391C20.5485 38.9905 19.2 35.7348 19.2 32.34V32.34Z" fill=""/>
</svg>
