<?xml version="1.0" encoding="UTF-8" standalone="no"?> <svg xmlns="http://www.w3.org/2000/svg" viewBox="0 0 64 64"><linearGradient x1="0" y1="0" x2="100%" y2="100%" id="gradient">
    <stop stop-color="var(--accent-color-three)" offset="0"/>
    <stop stop-color="var(--accent-color-two)"  offset="67%"/>
  </linearGradient><g id="Layer_22" data-name="Layer 22"><path d="M61.32,2.58A2,2,0,0,0,59.67,2,73.57,73.57,0,0,0,15.06,22.8L2.93,25.47a2,2,0,0,0-1,3.37L35.31,62.21a2,2,0,0,0,3.37-1l2.68-12.14A72.93,72.93,0,0,0,61.9,4.22,2,2,0,0,0,61.32,2.58Zm-23.2,44.1a2,2,0,0,0-.54,1l-2,9.14L7.35,28.59l9-2a2.59,2.59,0,0,0,1.28-.71A69.17,69.17,0,0,1,57.65,6.29,68.56,68.56,0,0,1,38.12,46.68Z"/><path d="M41.13,29.91c9.06-.26,9.11-13.48,0-13.76C32,16.43,32.06,29.65,41.13,29.91Zm-2-8.92a2.88,2.88,0,0,1,4.07,4.08A2.88,2.88,0,0,1,39.09,21Z"/><path d="M9.76,43.59a2,2,0,0,0-3.35.9L2.54,58.93A2,2,0,0,0,5,61.38l14.44-3.87a2,2,0,0,0,.9-3.35Zm-2.46,13,2.08-7.75,5.67,5.67Z"/></g></svg>