<?xml version="1.0" encoding="UTF-8" standalone="no"?> <svg xmlns="http://www.w3.org/2000/svg" viewBox="0 0 64 64"><linearGradient x1="0" y1="0" x2="100%" y2="100%" id="gradient">
    <stop stop-color="var(--accent-color-three)" offset="0"/>
    <stop stop-color="var(--accent-color-two)"  offset="67%"/>
  </linearGradient><g id="Layer_45" data-name="Layer 45"><path d="M62.09,32,50.53,25.67l11.55-6.33L32,2.86,1.92,19.34l11.55,6.33L1.92,32l11.55,6.33L1.92,44.66,32,61.14,62.08,44.66,50.53,38.33ZM57.92,19.34,38.21,30.15l14-14Zm-7.58-4.15L32,33.54l-3.26-1.79L47.08,13.4ZM45.25,12.4,26.89,30.75,23.63,29,42,10.61ZM40.16,9.61,21.8,28l-3.26-1.79L36.89,7.82ZM6.08,19.34l19-10.4L11.62,22.38Zm7.37,4L31.32,5.51,32,5.14l3.07,1.68L16.71,25.17ZM6.08,32l9.47-5.19,16.45,9,16.45-9L57.92,32,32,46.2Z"/></g></svg>