<?xml version="1.0" encoding="UTF-8" standalone="no"?> <svg xmlns="http://www.w3.org/2000/svg" viewBox="0 0 24 24" width="24" height="24">  <linearGradient x1="0" y1="0" x2="100%" y2="100%" id="gradient">
    <stop stop-color="var(--accent-color-three)" offset="0"/>
    <stop stop-color="var(--accent-color-two)"  offset="67%"/>
  </linearGradient><path fill="none" d="M0 0h24v24H0z"/><path d="M12 2c5.52 0 10 4.48 10 10s-4.48 10-10 10S2 17.52 2 12 6.48 2 12 2zm0 5c-2.76 0-5 2.24-5 5s2.24 5 5 5c1.82 0 3.413-.973 4.288-2.428l-1.715-1.028A3 3 0 1 1 12 9c1.093 0 2.05.584 2.574 1.457l1.714-1.03A4.999 4.999 0 0 0 12 7z" fill=""/></svg>