<?xml version="1.0" encoding="UTF-8"?>
<svg width="210mm" height="297mm" version="1.1" viewBox="0 0 210 297" xml:space="preserve" xmlns="http://www.w3.org/2000/svg"><g transform="translate(-.48166 -11.754)"><path d="m116.46 57.151c10.415-7.3134 25.911-17.528 37.316-8.6082 22.335 17.47 29.032 46.516 37.759 72.072 15.219 44.57 25.137 99.169-0.52037 138.93-9.3402 14.473-28.633 13.777-44.138 13.148-40.782-1.6532-84.457 10.174-122.36-5.4199-16.074-6.6126-19.427-25.916-20.151-41.975-2.5167-55.805 20.087-108.5 46.397-157.72 5.5512-10.386 14.258-24.354 27.632-22.256 13.217 2.0738 23.821 18.756 38.07 11.834z" fill="#ccc" stroke-width="1.3432"/><circle cx="68.259" cy="111.22" r="4.7998" stroke-width=".86165"/><circle cx="136.02" cy="112.91" r="4.7998" stroke-width=".86165"/><path class="UnoptimicedTransforms" transform="matrix(3.3069 .26469 -.1547 4.0261 -93.811 -439.98)" d="m59.232 139.1s0.26157 0.66534 1.4017 0.90015c0.94964 0.19558 2.2179-0.19002 2.7092-0.94967 0.46324-0.74848 0.9292-2.5104 1.4509-2.5089m5.5617 2.5584s-0.26157 0.66534-1.4017 0.90015c-0.94964 0.19558-2.2179-0.19002-2.7092-0.94967-0.46324-0.74848-0.9292-2.5104-1.4509-2.5089" fill="none" stroke="#1a1a1a" stroke-width=".69918"/></g></svg>
