<svg width="" height="" viewBox="0 0 64 64" fill="" xmlns="http://www.w3.org/2000/svg">
<path d="M7.15989 47.93H57.4999V14.07L54.5699 11.79H8.63989L6.63989 14.29L7.15989 47.93Z" fill="#dbe2f1" id="id_101"></path>
<path d="M58.39 46.6601V14.8601C58.39 13.7329 57.9422 12.6519 57.1452 11.8549C56.3482 11.0579 55.2672 10.6101 54.14 10.6101H9.85998C8.73281 10.6101 7.65181 11.0579 6.85478 11.8549C6.05775 12.6519 5.60999 13.7329 5.60999 14.8601V46.6601C4.77765 46.8042 4.02908 47.2538 3.51089 47.9209C2.99271 48.588 2.74225 49.4245 2.80857 50.2666C2.87488 51.1087 3.2532 51.8957 3.86942 52.4735C4.48564 53.0512 5.29536 53.3781 6.13999 53.3901H57.86C58.7046 53.3781 59.5143 53.0512 60.1306 52.4735C60.7468 51.8957 61.1251 51.1087 61.1914 50.2666C61.2577 49.4245 61.0073 48.588 60.4891 47.9209C59.9709 47.2538 59.2223 46.8042 58.39 46.6601V46.6601ZM8.10998 14.8601C8.10998 14.396 8.29436 13.9509 8.62255 13.6227C8.95074 13.2945 9.39586 13.1101 9.85998 13.1101H54.14C54.6041 13.1101 55.0492 13.2945 55.3774 13.6227C55.7056 13.9509 55.89 14.396 55.89 14.8601V46.6101H8.10998V14.8601ZM57.86 50.8601H6.13999C5.90394 50.8601 5.67757 50.7663 5.51066 50.5994C5.34375 50.4325 5.24999 50.2062 5.24999 49.9701C5.24999 49.7341 5.34375 49.5077 5.51066 49.3408C5.67757 49.1739 5.90394 49.0801 6.13999 49.0801H57.86C58.096 49.0801 58.3224 49.1739 58.4893 49.3408C58.6562 49.5077 58.75 49.7341 58.75 49.9701C58.75 50.2062 58.6562 50.4325 58.4893 50.5994C58.3224 50.7663 58.096 50.8601 57.86 50.8601V50.8601Z" fill="#dbe2f1" id="id_102"></path>
</svg>