<?xml version="1.0" encoding="UTF-8" standalone="no"?> <svg xmlns="http://www.w3.org/2000/svg" viewBox="0 0 64 64"><g id="Layer_42" data-name="Layer 42"><path d="M52.5,3h-32a5,5,0,0,0-5,5V31h-8a1,1,0,0,0-1,1V55.5A5.51,5.51,0,0,0,12,61H52.5a5,5,0,0,0,5-5V8A5,5,0,0,0,52.5,3ZM8.5,55.5V33h7V55.5a3.5,3.5,0,0,1-7,0Zm47,.5a3,3,0,0,1-3,3h-35V8a3,3,0,0,1,3-3h32a3,3,0,0,1,3,3Z"/><path d="M26.83,22.34a8.68,8.68,0,0,0,6.47-2.9,1.49,1.49,0,0,0,.18-.3,1.05,1.05,0,0,0,0-.61A6.83,6.83,0,0,0,29.78,14a4,4,0,1,0-5.9,0,6.82,6.82,0,0,0-3.72,4.51,1.06,1.06,0,0,0,0,.68,1,1,0,0,0,.22.32A8.6,8.6,0,0,0,26.83,22.34Zm-2-11.08a2,2,0,1,1,2,2h0A2,2,0,0,1,24.82,11.26Zm2,4h0a4.88,4.88,0,0,1,4.58,3.23,6.65,6.65,0,0,1-9.18,0A4.88,4.88,0,0,1,26.82,15.27Z"/><path d="M37.54,12.26h5.14a1,1,0,0,0,0-2H37.54a1,1,0,0,0,0,2Z"/><path d="M37.54,18H51.46a1,1,0,0,0,0-2H37.54a1,1,0,0,0,0,2Z"/><path d="M51.68,25.71H21.32a1,1,0,0,0,0,2H51.68a1,1,0,0,0,0-2Z"/><path d="M51.68,32.14H21.32a1,1,0,0,0,0,2H51.68a1,1,0,0,0,0-2Z"/><path d="M51.68,38.57H21.32a1,1,0,0,0,0,2H51.68a1,1,0,0,0,0-2Z"/><path d="M51.68,45H21.32a1,1,0,1,0,0,2H51.68a1,1,0,1,0,0-2Z"/><path d="M51.68,51.43H21.32a1,1,0,0,0,0,2H51.68a1,1,0,0,0,0-2Z"/></g></svg>