<?xml version="1.0" encoding="UTF-8" standalone="no"?> <svg width="64" height="64" viewBox="0 0 64 64" xmlns="http://www.w3.org/2000/svg">
<path d="M58 30.19H45.08V28.33C45.08 28.0648 44.9746 27.8104 44.7871 27.6229C44.5996 27.4354 44.3452 27.33 44.08 27.33H39.8V15.39C39.8 15.1248 39.6946 14.8704 39.5071 14.6829C39.3196 14.4954 39.0652 14.39 38.8 14.39H33V10.55H40.83C41.0331 10.5514 41.2319 10.491 41.3998 10.3766C41.5678 10.2623 41.6969 10.0995 41.77 9.91C41.8437 9.71955 41.8574 9.51109 41.8091 9.31265C41.7608 9.11421 41.653 8.93531 41.5 8.8L39.19 6.8L41.49 4.8C41.6427 4.66664 41.7512 4.49002 41.8012 4.29358C41.8512 4.09713 41.8403 3.89012 41.77 3.7C41.7069 3.49926 41.5821 3.32354 41.4133 3.19786C41.2445 3.07218 41.0404 3.00294 40.83 3H32C31.7348 3 31.4804 3.10536 31.2929 3.29289C31.1054 3.48043 31 3.73478 31 4V14.39H25.2C24.9348 14.39 24.6804 14.4954 24.4929 14.6829C24.3054 14.8704 24.2 15.1248 24.2 15.39V27.33H19.8C19.5348 27.33 19.2804 27.4354 19.0929 27.6229C18.9054 27.8104 18.8 28.0648 18.8 28.33V30.19H6C5.73478 30.19 5.48043 30.2954 5.29289 30.4829C5.10536 30.6704 5 30.9248 5 31.19V60C5 60.2652 5.10536 60.5196 5.29289 60.7071C5.48043 60.8946 5.73478 61 6 61H58C58.2652 61 58.5196 60.8946 58.7071 60.7071C58.8946 60.5196 59 60.2652 59 60V31.19C59 30.9248 58.8946 30.6704 58.7071 30.4829C58.5196 30.2954 58.2652 30.19 58 30.19ZM33 5H38.17L37 6C36.8936 6.09384 36.8084 6.20925 36.75 6.33856C36.6916 6.46787 36.6614 6.60812 36.6614 6.75C36.6614 6.89188 36.6916 7.03213 36.75 7.16144C36.8084 7.29075 36.8936 7.40616 37 7.5L38.18 8.5H33V5ZM26.2 16.39H37.8V27.33H26.2V16.39ZM7 32.19H18.8V59H7V32.19ZM20.82 31.19V29.33H43.08V59H38.66V48.25H40.27C40.5352 48.25 40.7896 48.1446 40.9771 47.9571C41.1646 47.7696 41.27 47.5152 41.27 47.25C41.27 46.9848 41.1646 46.7304 40.9771 46.5429C40.7896 46.3554 40.5352 46.25 40.27 46.25H23.73C23.4648 46.25 23.2104 46.3554 23.0229 46.5429C22.8354 46.7304 22.73 46.9848 22.73 47.25C22.73 47.5152 22.8354 47.7696 23.0229 47.9571C23.2104 48.1446 23.4648 48.25 23.73 48.25H25.33V59H20.8L20.82 31.19ZM27.33 59V48.25H36.66V59H27.33ZM57 59H45.08V32.19H57V59Z" />
<path d="M29.8799 40.1299H34.1299C34.3951 40.1299 34.6495 40.0245 34.837 39.837C35.0245 39.6495 35.1299 39.3951 35.1299 39.1299V34.8799C35.1299 34.6147 35.0245 34.3603 34.837 34.1728C34.6495 33.9852 34.3951 33.8799 34.1299 33.8799H29.8799C29.6147 33.8799 29.3603 33.9852 29.1728 34.1728C28.9852 34.3603 28.8799 34.6147 28.8799 34.8799V39.1299C28.8799 39.3951 28.9852 39.6495 29.1728 39.837C29.3603 40.0245 29.6147 40.1299 29.8799 40.1299ZM30.8799 35.8799H33.1299V38.1299H30.8799V35.8799Z" />
<path d="M48.9302 40.1299H53.1802C53.4454 40.1299 53.6997 40.0245 53.8873 39.837C54.0748 39.6495 54.1802 39.3951 54.1802 39.1299V34.8799C54.1802 34.6147 54.0748 34.3603 53.8873 34.1728C53.6997 33.9852 53.4454 33.8799 53.1802 33.8799H48.9302C48.665 33.8799 48.4106 33.9852 48.2231 34.1728C48.0355 34.3603 47.9302 34.6147 47.9302 34.8799V39.1299C47.9302 39.3951 48.0355 39.6495 48.2231 39.837C48.4106 40.0245 48.665 40.1299 48.9302 40.1299ZM49.9302 35.8799H52.1802V38.1299H49.9302V35.8799Z" />
<path d="M48.9302 50.3799H53.1802C53.4454 50.3799 53.6997 50.2745 53.8873 50.087C54.0748 49.8995 54.1802 49.6451 54.1802 49.3799V45.1299C54.1802 44.8647 54.0748 44.6103 53.8873 44.4228C53.6997 44.2352 53.4454 44.1299 53.1802 44.1299H48.9302C48.665 44.1299 48.4106 44.2352 48.2231 44.4228C48.0355 44.6103 47.9302 44.8647 47.9302 45.1299V49.3799C47.9302 49.6451 48.0355 49.8995 48.2231 50.087C48.4106 50.2745 48.665 50.3799 48.9302 50.3799ZM49.9302 46.1299H52.1802V48.3799H49.9302V46.1299Z" />
<path d="M15 33.8799H10.77C10.5048 33.8799 10.2504 33.9852 10.0629 34.1728C9.87538 34.3603 9.77002 34.6147 9.77002 34.8799V39.1299C9.77002 39.3951 9.87538 39.6495 10.0629 39.837C10.2504 40.0245 10.5048 40.1299 10.77 40.1299H15C15.2652 40.1299 15.5196 40.0245 15.7071 39.837C15.8947 39.6495 16 39.3951 16 39.1299V34.8799C16 34.6147 15.8947 34.3603 15.7071 34.1728C15.5196 33.9852 15.2652 33.8799 15 33.8799ZM14 38.1299H11.77V35.8799H14V38.1299Z" />
<path d="M15 44.1299H10.77C10.5048 44.1299 10.2504 44.2352 10.0629 44.4228C9.87538 44.6103 9.77002 44.8647 9.77002 45.1299V49.3799C9.77002 49.6451 9.87538 49.8995 10.0629 50.087C10.2504 50.2745 10.5048 50.3799 10.77 50.3799H15C15.2652 50.3799 15.5196 50.2745 15.7071 50.087C15.8947 49.8995 16 49.6451 16 49.3799V45.1299C16 44.8647 15.8947 44.6103 15.7071 44.4228C15.5196 44.2352 15.2652 44.1299 15 44.1299ZM14 48.3799H11.77V46.1299H14V48.3799Z" />
<path d="M34.1299 18.7402H29.8799C29.6147 18.7402 29.3603 18.8456 29.1728 19.0331C28.9852 19.2207 28.8799 19.475 28.8799 19.7402V24.0002C28.8799 24.2655 28.9852 24.5198 29.1728 24.7073C29.3603 24.8949 29.6147 25.0002 29.8799 25.0002H34.1299C34.3951 25.0002 34.6495 24.8949 34.837 24.7073C35.0245 24.5198 35.1299 24.2655 35.1299 24.0002V19.7402C35.1299 19.475 35.0245 19.2207 34.837 19.0331C34.6495 18.8456 34.3951 18.7402 34.1299 18.7402ZM33.1299 22.9902H30.8799V20.7402H33.1299V22.9902Z" />
</svg>
